<?xml version="1.0" standalone="no"?>
<!DOCTYPE svg PUBLIC "-//W3C//DTD SVG 20010904//EN"
 "http://www.w3.org/TR/2001/REC-SVG-20010904/DTD/svg10.dtd">
<svg version="1.0" xmlns="http://www.w3.org/2000/svg"
 width="128.000000pt" height="128.000000pt" viewBox="0 0 128.000000 128.000000"
 preserveAspectRatio="xMidYMid meet">

<g transform="translate(0.000000,128.000000) scale(0.100000,-0.100000)"
fill="#000000" stroke="none">
<path d="M460 1175 c0 -97 -1 -105 -19 -105 -20 0 -24 -11 -37 -105 -5 -38
-16 -60 -45 -93 -66 -76 -84 -124 -84 -232 0 -108 18 -156 84 -232 29 -33 40
-55 45 -93 13 -94 17 -105 37 -105 18 0 19 -8 19 -105 l0 -105 150 0 150 0 0
104 c0 93 2 104 19 109 14 3 21 20 30 69 6 36 11 72 11 81 0 9 6 20 13 24 26
16 78 91 96 139 16 40 24 50 47 54 28 5 29 8 29 60 0 52 -1 55 -29 60 -23 4
-31 14 -47 54 -18 48 -70 123 -96 139 -7 4 -13 15 -13 24 0 9 -5 45 -11 81 -9
49 -16 66 -30 69 -17 5 -19 16 -19 109 l0 104 -150 0 -150 0 0 -105z m250 -20
l0 -85 -105 0 -105 0 0 85 0 85 105 0 105 0 0 -85z m54 -151 c3 -9 6 -26 6
-38 l0 -23 -52 18 c-81 28 -168 23 -258 -15 -13 -5 -15 1 -12 34 l4 40 153 0
c130 0 154 -2 159 -16z m-31 -94 c183 -86 228 -329 89 -473 -61 -64 -124 -91
-212 -91 -122 -1 -215 56 -271 166 -26 51 -35 147 -20 203 48 178 249 272 414
195z m237 -270 c0 -11 -4 -20 -10 -20 -5 0 -10 9 -10 20 0 11 5 20 10 20 6 0
10 -9 10 -20z m-451 -326 c60 -19 135 -17 199 5 l52 18 0 -23 c0 -54 -1 -54
-165 -54 l-153 0 -4 40 c-3 33 -1 39 12 34 8 -4 35 -13 59 -20z m191 -189 l0
-85 -105 0 -105 0 0 85 0 85 105 0 105 0 0 -85z"/>
<path d="M522 902 c-71 -26 -118 -66 -156 -132 -27 -48 -31 -65 -31 -130 0
-65 4 -82 31 -130 97 -172 315 -197 447 -50 94 104 94 256 0 360 -78 87 -188
118 -291 82z m176 -48 c153 -63 191 -267 71 -381 -46 -43 -97 -63 -166 -63
-107 0 -188 63 -220 169 -42 145 68 291 219 291 32 0 75 -7 96 -16z"/>
<path d="M590 743 l0 -87 -42 -43 c-35 -36 -39 -44 -28 -58 12 -14 19 -11 62
32 l48 47 0 98 c0 91 -1 98 -20 98 -18 0 -20 -7 -20 -87z"/>
</g>
</svg>
