<?xml version="1.0" standalone="no"?>
<!DOCTYPE svg PUBLIC "-//W3C//DTD SVG 20010904//EN"
 "http://www.w3.org/TR/2001/REC-SVG-20010904/DTD/svg10.dtd">
<svg version="1.0" xmlns="http://www.w3.org/2000/svg"
 width="128.000000pt" height="128.000000pt" viewBox="0 0 128.000000 128.000000"
 preserveAspectRatio="xMidYMid meet">

<g transform="translate(0.000000,128.000000) scale(0.100000,-0.100000)"
fill="currentColor" stroke="none">
<path d="M185 1016 c-48 -49 -88 -120 -105 -189 -10 -38 -9 -58 9 -126 18 -72
27 -149 47 -398 5 -62 6 -63 34 -63 l29 0 -4 63 c-8 118 -15 367 -10 367 3 0
20 -6 38 -13 56 -24 131 -118 193 -243 85 -171 130 -197 335 -196 114 1 374
33 424 52 32 12 42 37 24 55 -8 8 -80 37 -160 65 -124 42 -158 50 -220 50
-151 1 -198 49 -429 442 -75 128 -115 178 -141 178 -11 0 -39 -20 -64 -44z
m55 7 c0 -18 195 -373 254 -462 109 -165 185 -216 284 -191 25 6 58 20 74 31
l28 21 143 -47 c155 -52 182 -66 150 -84 -35 -18 -301 -52 -418 -52 -203 -1
-234 18 -325 190 -88 167 -128 210 -298 319 -39 25 -42 30 -37 60 10 53 39
113 84 170 38 47 61 64 61 45z m137 -158 c36 -60 83 -139 104 -175 21 -36 68
-101 103 -146 72 -90 129 -124 206 -124 51 0 45 -15 -12 -31 -31 -8 -52 -8
-85 2 -86 24 -197 177 -359 496 -85 167 -64 156 43 -22z m-229 -148 c20 -15
28 -27 22 -33 -7 -7 -7 -84 -1 -215 5 -112 7 -206 5 -208 -11 -12 -15 17 -24
145 -9 126 -31 280 -46 319 -9 22 7 18 44 -8z"/>
</g>
</svg>
