<svg xmlns="http://www.w3.org/2000/svg" xmlns:xlink="http://www.w3.org/1999/xlink" version="1.1" x="0px" y="0px" viewBox="0 0 32 32" style="enable-background:new 0 0 32 32;" xml:space="preserve">
<style type="text/css">
	.st0{display:none;}
	.st1{display:inline;}
</style>
<g id="Grid" class="st0">
</g>
<g id="chat">
</g>
<g id="_x32_4_hours">
</g>
<g id="phone_book">
</g>
<g id="mail">
</g>
<g id="email_1_">
</g>
<g id="customer_support">
	<path d="M28.009,13.892h-1.302v-0.859c0-5.904-4.803-10.707-10.708-10.707S5.292,7.129,5.292,13.033v0.859H3.991   C2.891,13.892,2,14.783,2,15.883v4.4c0,1.099,0.891,1.99,1.991,1.99h2.37c0.404,0,0.731-0.327,0.731-0.731c0-2.836,0-5.673,0-8.509   c0-4.912,3.996-8.907,8.908-8.907s8.908,3.996,8.908,8.907c0,2.191,0,4.382,0,6.574c0,0.897,0,1.794,0,2.691   c0,1.905-1.55,3.456-3.456,3.456h-3.061c-0.339-0.72-1.066-1.221-1.914-1.221h-0.955c-1.171,0-2.121,0.95-2.121,2.121   s0.95,2.121,2.121,2.121h0.955c0.848,0,1.575-0.502,1.914-1.221h3.06c2.898,0,5.255-2.357,5.255-5.255v-0.025h1.302   c1.099,0,1.991-0.891,1.991-1.99v-4.4C30,14.783,29.109,13.892,28.009,13.892z" fill="#e9e9e9"/>
</g>
<g id="clock">
</g>
<g id="info">
</g>
<g id="notification">
</g>
<g id="_x32_4_hours_service">
</g>
<g id="letter">
</g>
<g id="outgoing_call">
</g>
<g id="incoming_call">
</g>
<g id="id_card">
</g>
<g id="calendar">
</g>
<g id="web">
</g>
<g id="block">
</g>
<g id="conversation">
</g>
<g id="pin">
</g>
<g id="call">
</g>
<g id="faq">
</g>
<g id="microphone">
</g>
<g id="feedback">
</g>
<g id="sticky_notes">
</g>
<g id="agenda">
</g>
</svg>