<?xml version="1.0" encoding="UTF-8"?>
<!DOCTYPE svg PUBLIC "-//W3C//DTD SVG 1.1//EN" "http://www.w3.org/Graphics/SVG/1.1/DTD/svg11.dtd">
<!-- Creator: CorelDRAW -->
<svg xmlns="http://www.w3.org/2000/svg" xml:space="preserve" width="1.70666in" height="1.70666in" version="1.1" style="shape-rendering:geometricPrecision; text-rendering:geometricPrecision; image-rendering:optimizeQuality; fill-rule:evenodd; clip-rule:evenodd"
viewBox="0 0 1707 1707"
 xmlns:xlink="http://www.w3.org/1999/xlink">
 <defs>  
 </defs>
 <g id="Layer_x0020_1">
  <metadata id="CorelCorpID_0Corel-Layer"/>
  <path class="fil0" d="M1061 1348l-498 0c-13,0 -23,-10 -23,-23l0 -109c0,-13 10,-23 23,-23l498 0c13,0 23,10 23,23l0 109c0,13 -10,23 -23,23zm-208 359c-470,0 -853,-383 -853,-854 0,-470 383,-853 853,-853 471,0 854,383 854,853 0,471 -383,854 -854,854zm0 -1661c-445,0 -807,362 -807,807 0,446 362,808 807,808 446,0 808,-362 808,-808 0,-445 -362,-807 -808,-807zm0 1544c-406,0 -736,-330 -736,-737 0,-406 330,-736 736,-736 407,0 737,330 737,736 0,407 -330,737 -737,737zm0 -1428c-381,0 -691,310 -691,691 0,382 310,692 691,692 382,0 692,-310 692,-692 0,-381 -310,-691 -692,-691zm-261 952l-217 -217c-77,-77 -22,-210 87,-210 33,0 63,13 87,36l99 100 428 -428c48,-48 126,-48 173,0 48,48 48,125 0,173l-545 546c-31,30 -82,30 -112,0zm-130 -381c-69,0 -103,83 -55,132l217 216c13,13 35,13 48,0l545 -545c49,-48 14,-132 -54,-132 -21,0 -41,8 -55,23l-444 444c-9,9 -23,9 -32,0l-116 -116c-14,-14 -34,-22 -54,-22zm124 569l453 0 0 -64 -453 0 0 64z" fill="#e9e9e9"/>
 </g>
</svg>
